<svg width="90" height="90" viewBox="0 0 90 90" fill="none" xmlns="http://www.w3.org/2000/svg">
<path d="M27.9721 29.8338C28.9622 40.0885 35.5952 46.8612 45.0005 46.8612C54.4048 46.8612 61.0367 40.0883 62.0279 29.8338L63.4321 18.7545C64.3032 7.86938 55.4205 0 45.0005 0C34.5797 0 25.6973 7.86938 26.5679 18.7545L27.9721 29.8338Z" fill="url(#paint0_linear)"/>
<path d="M45.0005 76.9976L48.9992 66.0797L46.7684 54.7136L48.5604 53.5187V50.9964H45.0005H41.4395V53.5187L43.2318 54.7135L41.0008 66.0797L45.0005 76.9976Z" fill="url(#paint1_linear)"/>
<path d="M81.424 74.2797L80.7518 69.9994C80.1888 66.4105 77.9332 63.3123 74.6917 61.6742L60.5463 54.5211C58.6455 53.5614 58.1419 50.6112 58.1419 50.6112C58.0231 50.4186 57.8011 50.3149 57.5771 50.3497C57.3534 50.3827 57.1714 50.5453 57.1136 50.7643L55.4556 57.1371L45.0005 85.6851L34.544 57.1371L32.8864 50.7643C32.8287 50.5453 32.6468 50.3825 32.4228 50.3497C32.1991 50.315 31.9765 50.4186 31.8581 50.6112C31.8581 50.6112 31.3545 53.5614 29.4537 54.5211L15.3081 61.6742C12.0663 63.3123 9.81105 66.4105 9.24802 69.9994L8.57548 74.2797C8.33624 75.8076 8.65247 78.0498 10.0213 79.1708C11.851 80.6672 18.6108 90 45.0005 90C71.3893 90 78.1487 80.6672 79.9785 79.1708C81.3479 78.0498 81.6638 75.8076 81.424 74.2797Z" fill="url(#paint2_linear)"/>
<defs>
<linearGradient id="paint0_linear" x1="45" y1="0" x2="45" y2="46.8612" gradientUnits="userSpaceOnUse">
<stop stop-color="#CF3638"/>
<stop offset="1" stop-color="#9D0238"/>
</linearGradient>
<linearGradient id="paint1_linear" x1="45" y1="50.9964" x2="45" y2="76.9976" gradientUnits="userSpaceOnUse">
<stop stop-color="#CF3638"/>
<stop offset="1" stop-color="#9D0238"/>
</linearGradient>
<linearGradient id="paint2_linear" x1="44.9999" y1="50.343" x2="44.9999" y2="90" gradientUnits="userSpaceOnUse">
<stop stop-color="#CF3638"/>
<stop offset="1" stop-color="#9D0238"/>
</linearGradient>
</defs>
</svg>
