<svg width="90" height="90" viewBox="0 0 90 90" fill="none" xmlns="http://www.w3.org/2000/svg">
<path d="M83.6026 51.9438L76.3242 36.5136C76.3434 36.0522 76.3599 35.5907 76.3599 35.1239C76.3599 15.7275 60.6357 0.000488281 41.2339 0.000488281C21.8348 0.000488281 6.10786 15.7275 6.10786 35.1239C6.10786 46.0334 11.0819 55.781 18.8822 62.2244V74.639C18.8822 75.8503 19.6045 76.9461 20.7197 77.4186L49.8115 89.759C50.7426 90.1545 51.811 90.0583 52.6542 89.5007C53.5002 88.9403 54.0083 87.9955 54.0083 86.9848V76.4627C54.0083 74.7982 55.3568 73.4442 57.024 73.4442H71.9242C73.5913 73.4442 74.9399 72.0928 74.9399 70.4285V61.3564C74.9399 60.2001 75.6019 59.1454 76.6401 58.6401L82.1937 55.9457C83.6796 55.2206 84.3085 53.438 83.6026 51.9438ZM41.2339 59.0136C28.042 59.0136 17.3496 48.3184 17.3496 35.1239C17.3496 21.9348 28.042 11.2396 41.2339 11.2396C54.4257 11.2396 65.121 21.9348 65.121 35.1239C65.121 48.3184 54.4257 59.0136 41.2339 59.0136Z" fill="url(#paint0_linear)"/>
<path d="M50.5942 32.6738H43.6866V19.7099C43.6866 18.3531 42.5879 17.2573 41.2339 17.2573C39.8798 17.2573 38.7812 18.3531 38.7812 19.7099V35.1238C38.7812 36.4807 39.8798 37.5765 41.2339 37.5765H50.5942C51.9483 37.5765 53.0469 36.4807 53.0469 35.1238C53.0469 33.7696 51.9483 32.6738 50.5942 32.6738Z" fill="url(#paint1_linear)"/>
<defs>
<linearGradient id="paint0_linear" x1="45" y1="0.000488281" x2="45" y2="89.9996" gradientUnits="userSpaceOnUse">
<stop stop-color="#CF3638"/>
<stop offset="1" stop-color="#9E0338"/>
</linearGradient>
<linearGradient id="paint1_linear" x1="45.9141" y1="17.2573" x2="45.9141" y2="37.5765" gradientUnits="userSpaceOnUse">
<stop stop-color="#CF3638"/>
<stop offset="1" stop-color="#9E0338"/>
</linearGradient>
</defs>
</svg>
