<svg width="180" height="90" viewBox="0 0 180 90" fill="none" xmlns="http://www.w3.org/2000/svg">
<path d="M79.6357 75.5474C79.2842 74.2263 78.7871 73.0426 78.1718 71.9879C77.0952 70.1367 75.667 68.6974 74.0958 67.5577C72.9148 66.7007 71.6514 66.0059 70.3714 65.4015C69.0667 64.7917 67.7429 64.2809 66.4631 63.803C65.1364 61.9298 63.0325 59.0569 63.0902 54.4235C63.1287 51.438 63.3621 50.6633 63.4089 42.0281C64.1174 41.4403 64.7877 40.7043 65.3644 39.7869C66.1252 38.5893 66.7322 37.1062 67.147 35.2659C67.2623 34.7551 67.3174 34.2497 67.3174 33.7553C67.3202 32.7088 67.0728 31.7118 66.6582 30.8275C66.3725 30.2122 66.0073 29.6464 65.5815 29.1356C65.7984 28.3335 66.0649 27.2568 66.2957 25.9935C66.6199 24.2411 66.889 22.14 66.889 19.9262C66.889 18.5008 66.7763 17.0286 66.488 15.5702C66.2711 14.4798 65.9524 13.3977 65.4992 12.3594C64.8235 10.7993 63.8402 9.33258 62.4725 8.12408C61.2063 6.99803 59.616 6.10805 57.7016 5.53131C56.8914 4.56451 56.0536 3.74045 55.1913 3.05385C53.7356 1.8893 52.2002 1.11199 50.6375 0.642305C49.0772 0.170332 47.4926 0 45.916 0C45.081 0 44.2489 0.0493945 43.4165 0.126387C42.6364 0.192305 41.9883 0.274746 41.4088 0.373535C40.5408 0.516445 39.8267 0.708574 39.1345 0.950273C38.4397 1.18916 37.7722 1.46672 36.8988 1.81266C36.5637 1.93904 36.1269 2.13398 35.6024 2.40047C34.6823 2.86734 33.5013 3.5485 32.2323 4.49332C30.3346 5.91064 28.2389 7.91016 26.602 10.6182C25.789 11.9751 25.0859 13.5021 24.5971 15.216C24.1026 16.9298 23.8169 18.8195 23.8169 20.8849C23.8169 22.1759 23.9296 23.5382 24.1685 24.9636C24.1685 25.0652 24.1713 25.1559 24.1796 25.252C24.1906 25.4278 24.207 25.6173 24.2263 25.8068C24.2566 26.0924 24.2923 26.3835 24.317 26.6309C24.3308 26.7572 24.3418 26.8671 24.3473 26.9496C24.3501 26.9935 24.3555 27.0292 24.3555 27.054V27.0842V27.0925V27.2573L24.7043 28.8091C24.2044 29.3556 23.7704 29.9682 23.4327 30.6466C22.963 31.5805 22.6828 32.6352 22.6828 33.7558C22.6828 34.2503 22.7378 34.7611 22.8531 35.2665C23.1305 36.4915 23.4932 37.5627 23.927 38.491C24.5833 39.8918 25.4074 40.985 26.3274 41.798C26.4099 41.875 26.4978 41.9518 26.5857 42.0205C26.6296 50.664 26.8631 51.4385 26.9015 54.4242C26.9592 59.0604 24.8526 61.9305 23.5287 63.8065C22.9546 64.0208 22.375 64.2405 21.7928 64.4739C20.3372 65.0563 18.865 65.7098 17.4642 66.5394C16.4123 67.16 15.3988 67.8742 14.4677 68.7284C13.0723 70.0056 11.8694 71.5959 11.0399 73.5706C10.205 75.5372 9.74073 77.8718 9.74354 80.6266C9.74354 81.0139 9.82317 81.3874 9.96046 81.7281C10.084 82.0522 10.2572 82.3433 10.4604 82.6235C10.8422 83.1454 11.3365 83.6123 11.9436 84.0628C13.0066 84.8429 14.4183 85.5789 16.2474 86.2711C18.9858 87.3039 22.6607 88.2267 27.4096 88.9079C32.1583 89.5797 37.981 90 44.9986 90C51.085 90 56.2706 89.6841 60.6349 89.1596C63.9088 88.7695 66.7241 88.2587 69.1135 87.6763C70.9043 87.2369 72.4588 86.7589 73.7908 86.2509C74.7907 85.8746 75.6668 85.4791 76.4276 85.0727C76.996 84.7705 77.5042 84.4574 77.9491 84.1387C78.6194 83.6553 79.1576 83.15 79.5642 82.5841C79.7674 82.3039 79.9377 82.0018 80.0613 81.6722C80.1823 81.348 80.2563 80.9938 80.2563 80.6258C80.2564 78.7417 80.0395 77.0581 79.6357 75.5474ZM31.5541 63.6054C32.0897 63.2867 32.6088 62.9462 33.0894 62.5616C33.603 62.1496 34.081 61.6855 34.4985 61.1662L44.0594 65.6047L39.5659 73.8473L31.5541 63.6054ZM45.7511 81.7548L40.9474 75.6134L45.4874 67.2803L50.011 75.5777L45.7511 81.7548ZM51.3213 73.6798L46.891 65.5581L55.4275 61.0729C55.617 61.3146 55.8148 61.5454 56.029 61.7623C56.7047 62.4572 57.4875 63.0339 58.3253 63.5339L51.3213 73.6798ZM61.7198 39.6058C61.11 40.1497 60.4673 40.5039 59.7916 40.7484L59.1433 40.9873L58.9154 41.6382C58.2068 43.6268 57.52 45.2252 56.8308 46.5107C56.1414 47.7905 55.4574 48.7519 54.7434 49.5072L54.4632 49.8066L54.3753 50.2021C54.0566 51.6688 53.7381 53.2893 53.7381 55.2064C53.7381 55.7996 53.7683 56.4149 53.837 57.0658C53.914 57.8266 54.087 58.5408 54.3507 59.2C54.3617 59.233 54.3755 59.2604 54.3892 59.2933L45.46 63.9844L35.5669 59.3975C35.8717 58.6833 36.0777 57.9034 36.1656 57.0656V57.0628C36.2315 56.4145 36.2617 55.7993 36.2617 55.2088C36.2617 53.289 35.9458 51.663 35.6245 50.1963L35.5366 49.8008L35.2564 49.504C34.545 48.7515 33.8584 47.7902 33.169 46.5047C32.4824 45.2248 31.7957 43.6263 31.0899 41.6377L30.8591 40.9867L30.2108 40.7533C29.7603 40.5858 29.3265 40.3687 28.9033 40.0887C28.2716 39.6657 27.6701 39.0834 27.1208 38.2182C26.5686 37.3502 26.0743 36.1884 25.7173 34.6175C25.6514 34.3208 25.6212 34.0325 25.6212 33.7551C25.6212 33.1288 25.775 32.5301 26.0606 31.9562C26.2969 31.4837 26.6236 31.0361 27.0274 30.6295C27.7003 31.6513 28.2579 32.4587 28.4611 32.6621C29.1231 33.3241 29.2164 31.7667 28.9005 30.0171C28.3238 26.8008 29.8865 28.2565 33.8526 20.5441C41.7876 22.3047 55.6523 13.8698 55.6523 13.8698C55.6523 13.8698 55.8199 17.7151 58.4648 21.2444C60.9725 24.5871 62.4007 32.4422 62.4007 32.4422C62.4007 32.4422 62.744 31.7939 63.2522 30.9261C63.557 31.2831 63.8098 31.6677 63.9939 32.0687C64.2438 32.6071 64.3785 33.1673 64.3785 33.7551C64.3785 34.0298 64.3482 34.3209 64.2823 34.6175C64.0461 35.6639 63.7439 36.5291 63.4089 37.2488C62.9063 38.3231 62.3267 39.0619 61.7198 39.6058Z" fill="url(#paint0_linear)"/>
<path d="M44.6801 74.8279C44.6801 75.3773 45.125 75.8222 45.6743 75.8222C46.2208 75.8222 46.6659 75.3773 46.6659 74.8279C46.6659 74.2841 46.221 73.8392 45.6743 73.8392C45.125 73.8392 44.6801 74.2841 44.6801 74.8279Z" fill="url(#paint1_linear)"/>
<g clip-path="url(#clip0)">
<path d="M169.636 75.542C169.284 74.2236 168.787 73.0399 168.172 71.9852C167.095 70.1367 165.667 68.6976 164.093 67.555C162.915 66.6981 161.651 66.0032 160.372 65.4017C158.449 64.5008 156.482 63.8086 154.67 63.1385C152.854 62.4711 151.192 61.8147 149.907 61.0539C149.434 60.7765 149.009 60.4855 148.641 60.1833C148.091 59.7219 147.669 59.2356 147.358 58.6891C147.048 58.1426 146.839 57.53 146.759 56.761C146.702 56.2145 146.677 55.6952 146.677 55.2064C146.677 53.7562 146.891 52.4955 147.163 51.2102C147.976 50.2928 148.718 49.2024 149.421 47.8951C150.124 46.5878 150.794 45.0524 151.459 43.2369C151.887 43.042 152.316 42.8084 152.739 42.5283C153.697 41.8801 154.606 40.9848 155.365 39.7872C156.123 38.5896 156.732 37.1011 157.147 35.2637C157.263 34.7555 157.318 34.2475 157.318 33.7504C157.318 32.7066 157.073 31.7123 156.658 30.8252C156.373 30.2128 156.007 29.6469 155.582 29.1333C155.799 28.334 156.062 27.2545 156.296 25.994C156.62 24.2416 156.889 22.1405 156.889 19.9241C156.889 18.4987 156.779 17.0265 156.488 15.5681C156.268 14.4777 155.953 13.3956 155.499 12.3572C154.824 10.8 153.84 9.33328 152.47 8.12197C151.204 6.99856 149.616 6.10875 147.702 5.53201C146.892 4.5624 146.054 3.74115 145.189 3.05191C143.733 1.89018 142.201 1.11006 140.638 0.640371C139.075 0.170684 137.493 0 135.913 0C135.081 0 134.252 0.0467578 133.417 0.120938C132.636 0.192305 131.988 0.271934 131.409 0.370898C130.541 0.516445 129.827 0.70875 129.135 0.947637C128.44 1.18652 127.772 1.46672 126.896 1.81002C126.564 1.94186 126.13 2.13416 125.603 2.40047C124.685 2.86189 123.499 3.5485 122.235 4.49332C120.335 5.90783 118.236 7.91016 116.605 10.6182C115.786 11.9696 115.089 13.5021 114.597 15.2133C114.103 16.93 113.817 18.8197 113.817 20.8877C113.817 22.1732 113.932 23.5355 114.169 24.9609C114.169 25.0599 114.174 25.1587 114.18 25.252C114.191 25.4278 114.21 25.6147 114.229 25.8068C114.259 26.0896 114.292 26.3835 114.317 26.6309C114.331 26.7518 114.342 26.8617 114.35 26.9496C114.35 26.9907 114.353 27.0265 114.355 27.054V27.0814V27.0896V27.0925V27.2545L114.704 28.8063C114.204 29.3528 113.77 29.9681 113.433 30.6411C112.963 31.5805 112.683 32.6352 112.685 33.753C112.685 34.2475 112.738 34.7555 112.853 35.2637C113.13 36.4913 113.493 37.5625 113.93 38.4908C114.583 39.8916 115.407 40.9792 116.325 41.7978C117.033 42.4322 117.791 42.8964 118.544 43.2397C119.209 45.0526 119.876 46.585 120.582 47.8951C121.282 49.2026 122.024 50.2901 122.837 51.2075C123.106 52.4902 123.323 53.7536 123.323 55.2066C123.323 55.6982 123.301 56.2145 123.243 56.7612C123.188 57.2885 123.07 57.7445 122.903 58.1565C122.653 58.7689 122.29 59.2908 121.793 59.788C121.299 60.2768 120.664 60.7328 119.917 61.1585C119.156 61.5897 118.277 61.9907 117.319 62.3781C115.641 63.0564 113.732 63.6993 111.793 64.4683C110.337 65.0507 108.867 65.7098 107.464 66.5392C106.412 67.1572 105.399 67.8741 104.468 68.7282C103.075 69.9998 101.869 71.5929 101.04 73.5676C100.205 75.5369 99.7406 77.8688 99.7434 80.6263C99.7434 81.0135 99.8258 81.3871 99.9603 81.7277C100.087 82.0464 100.257 82.3458 100.46 82.6204C100.842 83.1423 101.339 83.6063 101.943 84.0568C103.006 84.8424 104.418 85.5758 106.247 86.2678C108.988 87.3005 112.663 88.2262 117.412 88.9045C122.158 89.5774 127.981 90.0004 135.001 90.0004C141.082 90.0004 146.271 89.6817 150.635 89.1571C153.912 88.7671 156.724 88.2562 159.114 87.6739C160.905 87.2344 162.456 86.7538 163.788 86.2485C164.788 85.8721 165.667 85.4794 166.428 85.0729C166.996 84.7652 167.505 84.4576 167.95 84.1335C168.62 83.6501 169.155 83.1502 169.565 82.5843C169.765 82.3015 169.938 81.9993 170.062 81.6752C170.183 81.3484 170.257 80.9912 170.257 80.6259C170.256 78.7391 170.04 77.0527 169.636 75.542ZM131.931 76.8686L121.554 63.6026C122.095 63.2867 122.609 62.9434 123.089 62.5588C123.606 62.1441 124.081 61.6853 124.498 61.1634L132.043 64.6654L130.434 67.3515L132.928 69.9964L131.931 76.8686ZM125.567 59.3921C125.872 58.6807 126.081 57.9034 126.163 57.063C126.232 56.4147 126.262 55.794 126.262 55.2062C126.262 53.2835 125.943 51.6632 125.628 50.1964L125.537 49.7981L125.257 49.5014C124.545 48.7489 123.859 47.7847 123.169 46.5049C122.483 45.2222 121.796 43.6264 121.09 41.6378L120.859 40.9869L120.211 40.748C119.76 40.5831 119.324 40.3717 118.904 40.0888C118.272 39.6603 117.67 39.0809 117.118 38.2157C116.569 37.3505 116.075 36.1888 115.718 34.6177C115.652 34.3183 115.621 34.0298 115.621 33.7525C115.621 33.1235 115.775 32.5274 116.061 31.9535C116.297 31.481 116.627 31.0307 117.028 30.6297C117.703 31.6515 118.258 32.4589 118.464 32.6595C119.123 33.3214 118.917 33.1181 119.137 32.7913C119.137 32.7913 119.887 31.7366 123.853 24.0214C131.788 25.7846 145.653 13.8672 145.653 13.8672C145.653 13.8672 145.82 17.7152 148.465 21.2418C150.973 24.5871 152.404 32.4396 152.404 32.4396C152.404 32.4396 152.744 31.7941 153.252 30.9263C153.557 31.2806 153.81 31.6651 153.994 32.0634C154.247 32.6044 154.378 33.1648 154.378 33.7498C154.378 34.03 154.348 34.3183 154.282 34.615C154.043 35.6614 153.747 36.5295 153.409 37.2435C152.906 38.3201 152.327 39.0589 151.72 39.6028C151.11 40.1467 150.465 40.5009 149.792 40.7482L149.143 40.9845L148.913 41.6354C148.207 43.6266 147.52 45.2252 146.833 46.505C146.144 47.7905 145.455 48.7517 144.743 49.5044L144.463 49.8011L144.375 50.2021C144.056 51.6633 143.738 53.2865 143.738 55.2064C143.738 55.7942 143.768 56.4149 143.834 57.0632C143.914 57.8268 144.087 58.5408 144.351 59.2C144.362 59.2302 144.375 59.2604 144.389 59.2879L135.46 63.9844L125.567 59.3921ZM138.789 77.3492L137.721 69.9966L140.217 67.3516L138.602 64.6545L145.427 61.0675C145.617 61.312 145.815 61.5454 146.029 61.7623C146.707 62.4572 147.487 63.0313 148.325 63.5312L138.789 77.3492Z" fill="url(#paint2_linear)"/>
</g>
<defs>
<linearGradient id="paint0_linear" x1="44.9999" y1="0" x2="44.9999" y2="90" gradientUnits="userSpaceOnUse">
<stop stop-color="#CF3638"/>
<stop offset="1" stop-color="#9D0238"/>
</linearGradient>
<linearGradient id="paint1_linear" x1="45.673" y1="73.8392" x2="45.673" y2="75.8222" gradientUnits="userSpaceOnUse">
<stop stop-color="#CF3638"/>
<stop offset="1" stop-color="#9D0238"/>
</linearGradient>
<linearGradient id="paint2_linear" x1="135" y1="0" x2="135" y2="90.0004" gradientUnits="userSpaceOnUse">
<stop stop-color="#CE3538"/>
<stop offset="1" stop-color="#9D0238"/>
</linearGradient>
<clipPath id="clip0">
<rect width="90" height="90" fill="white" transform="translate(90)"/>
</clipPath>
</defs>
</svg>
