<svg width="190" height="190" viewBox="0 0 190 190" fill="none" xmlns="http://www.w3.org/2000/svg">
<path d="M181.746 98.6193C180.812 96.2903 180.812 93.712 181.746 91.3748L189.3 72.4089C191.085 67.9317 189.363 62.8844 185.176 60.269L167.404 49.1718C165.218 47.8054 163.633 45.7143 162.953 43.3081L157.406 23.7147C156.1 19.0972 151.601 15.9718 146.607 16.2097L125.406 17.2235C122.8 17.3437 120.236 16.5503 118.203 14.9836L101.674 2.25356C97.7803 -0.751188 92.2212 -0.751188 88.3241 2.25356L71.7959 14.9836C69.7621 16.5503 67.1983 17.3437 64.5892 17.2235L43.3908 16.2097C38.3975 15.9722 33.8985 19.0972 32.5928 23.7147L27.0484 43.3081C26.3655 45.7143 24.7811 47.8054 22.5945 49.1718L4.82293 60.2686C0.635566 62.8841 -1.08385 67.9369 0.698429 72.4086L8.25594 91.3774C9.18762 93.712 9.18762 96.29 8.25594 98.6216L0.698429 117.59C-1.08385 122.059 0.635566 127.115 4.82293 129.73L22.5945 140.831C24.7811 142.191 26.3655 144.277 27.0484 146.688L32.5928 166.282C33.8989 170.902 38.3979 174.025 43.3908 173.787L64.5892 172.778C67.1983 172.649 69.7621 173.449 71.7959 175.013L88.3241 187.748C92.2212 190.751 97.7803 190.751 101.671 187.748L118.203 175.013C120.234 173.449 122.8 172.65 125.406 172.778L146.607 173.787C151.601 174.025 156.1 170.902 157.406 166.282L162.953 146.688C163.633 144.277 165.218 142.191 167.404 140.831L185.176 129.73C189.363 127.115 191.085 122.059 189.297 117.59L181.746 98.6193Z" fill="white"/>
</svg>
