<svg width="46" height="46" viewBox="0 0 46 46" fill="none" xmlns="http://www.w3.org/2000/svg">
<g clip-path="url(#clip0)">
<path d="M43.7088 35.7505C43.5117 35.2126 43.1805 34.68 42.711 34.2333C42.2098 33.7584 41.5441 33.2504 40.7696 32.7029C39.6133 31.8873 38.2327 31.013 36.9975 30.2895C36.3799 29.9277 35.7991 29.6044 35.2954 29.3442C34.7837 29.0822 34.3799 28.8878 33.9831 28.7564C33.652 28.6478 33.3112 28.5995 32.9801 28.5995C31.9814 28.6065 31.0932 29.0051 30.3494 29.578C29.6092 30.1588 28.9959 30.9403 28.6411 31.8811C28.5964 32.0011 28.5534 32.0939 28.5141 32.171C27.4418 31.4798 24.8024 29.5202 20.9189 24.9122C18.2515 21.7463 16.7132 19.3662 15.8502 17.8069C15.4578 17.0956 15.2098 16.5638 15.053 16.1968C15.1363 16.1705 15.2353 16.1442 15.3624 16.1206C16.4407 15.9112 17.3842 15.3706 18.1096 14.6452C18.4714 14.2799 18.7797 13.8638 19.0066 13.3953C19.2317 12.9274 19.378 12.401 19.378 11.8385C19.378 11.688 19.3675 11.5372 19.3457 11.3848C19.3045 11.1062 19.2353 10.832 19.1443 10.507C18.8253 9.38652 18.2077 7.71686 17.5166 6.06904C17.1715 5.24643 16.8088 4.43612 16.4557 3.71342C16.1009 2.98892 15.7645 2.35993 15.429 1.85716C14.9473 1.13536 14.2736 0.643012 13.5973 0.36791C12.9184 0.0893945 12.2378 0.000808594 11.621 0C11.0463 0 10.5216 0.0770859 10.0721 0.185707C9.84696 0.239973 9.64104 0.303043 9.45192 0.373211C9.26091 0.444996 9.09093 0.518578 8.90711 0.628008L8.90971 0.626301C8.90971 0.626301 8.90711 0.628008 8.90621 0.628906L8.85976 0.55182L8.87207 0.648133C8.8037 0.687574 8.65482 0.771668 8.47262 0.881187C7.66582 1.36652 6.08718 2.40197 4.67421 4.11278C3.26294 5.81666 2.01636 8.25727 2.02076 11.3785C2.02076 12.0443 2.07683 12.7398 2.19686 13.4626C3.5092 21.3503 7.22092 27.8671 11.4529 32.8893C15.6849 37.9106 21.478 42.6762 29.0303 45.306C30.4205 45.7897 31.7503 45.9999 32.9882 45.9999C35.9649 45.999 38.3451 44.7989 39.9946 43.5794C40.8234 42.968 41.4785 42.3469 41.9577 41.844C42.1969 41.5926 42.3922 41.371 42.5403 41.1975C42.6857 41.0276 42.797 40.89 42.8171 40.8673C42.9915 40.6614 43.1123 40.4644 43.2403 40.2287C43.6048 39.5322 43.9709 38.5291 43.9796 37.3334C43.9794 36.8297 43.9068 36.2893 43.7088 35.7505ZM4.71167 11.3786C4.71257 10.0033 5.01481 8.8408 5.48002 7.83069C6.17469 6.31961 7.25829 5.15443 8.23337 4.34152C8.7196 3.93507 9.17511 3.61882 9.53341 3.38927C9.71211 3.27445 9.86718 3.18253 9.99071 3.10985C10.1151 3.03708 10.1991 2.99063 10.2859 2.93897C10.3043 2.92585 10.5084 2.84355 10.7546 2.78911C11.006 2.73224 11.3161 2.69019 11.621 2.69109C11.9723 2.68929 12.3104 2.74625 12.5705 2.85568C12.8343 2.96781 13.0226 3.10626 13.1943 3.35773C13.4404 3.72133 13.8039 4.39758 14.1772 5.18425C14.7414 6.37037 15.3502 7.82979 15.8276 9.1018C16.0659 9.73691 16.2727 10.3266 16.4233 10.8049C16.5748 11.2762 16.6704 11.6659 16.6826 11.7694L16.687 11.8385C16.6879 11.9278 16.6626 12.0611 16.5837 12.2249C16.4681 12.4692 16.2271 12.7654 15.9119 13C15.5973 13.2366 15.2171 13.4101 14.8597 13.4767C14.3814 13.5678 13.9714 13.7018 13.6166 13.8822C13.0857 14.1476 12.6827 14.5419 12.4593 14.9484C12.2316 15.3548 12.1852 15.7316 12.186 15.9541L12.1931 16.1065L12.2351 16.3307C12.2956 16.5524 13.3266 20.0792 18.8613 26.6468C24.3961 33.2143 27.6969 34.8279 27.9055 34.9251L28.1332 35.0084C28.2243 35.0321 28.3794 35.0636 28.5896 35.0636C28.9574 35.0707 29.5138 34.941 29.9957 34.5555C30.4817 34.1737 30.8717 33.6007 31.1617 32.8246C31.3149 32.4066 31.6356 31.9854 32.0035 31.7015C32.3697 31.4107 32.7665 31.2846 32.9803 31.2916L33.1511 31.3152C33.215 31.3354 33.4105 31.4142 33.6522 31.5316C34.5195 31.9451 36.036 32.8168 37.4656 33.7304C38.183 34.1877 38.8839 34.6581 39.4813 35.0892C40.0779 35.5176 40.5772 35.9161 40.8548 36.1815C41.0186 36.3392 41.1132 36.4952 41.1833 36.6818C41.2526 36.8675 41.2884 37.0873 41.2884 37.3335C41.2902 37.7189 41.193 38.1595 41.0624 38.5153C40.9985 38.6923 40.9266 38.8482 40.8671 38.9603L40.7917 39.0899L40.7759 39.1128C40.6962 39.2065 40.62 39.3021 40.493 39.4509C40.0628 39.9572 39.1562 40.9419 37.8684 41.7811C36.5789 42.623 34.9444 43.3081 32.9881 43.309C32.0516 43.3081 31.0337 43.153 29.915 42.764C22.9217 40.3304 17.5087 35.8986 13.5115 31.1549C9.51418 26.4105 6.06526 20.3256 4.85111 13.0213C4.75471 12.4403 4.71167 11.8946 4.71167 11.3786Z" fill="#D13838"/>
</g>
<defs>
<clipPath id="clip0">
<rect width="46" height="46" fill="white"/>
</clipPath>
</defs>
</svg>
